<svg id="mermaid-1775217503877" width="100%" xmlns="http://www.w3.org/2000/svg" style="max-width: 100%; height: auto;" viewBox="-123 -10 1701 2256" role="graphics-document document" aria-roledescription="sequence"><rect x="-73" y="1767" fill="rgb(240, 255, 255)" width="714" height="383" class="rect"></rect><rect x="-58.5" y="866" fill="rgb(255, 255, 240)" width="1586.5" height="891" class="rect"></rect><rect x="61.5" y="538" fill="rgb(255, 250, 240)" width="590" height="318" class="rect"></rect><rect x="61.5" y="124" fill="rgb(255, 245, 245)" width="608" height="404" class="rect"></rect><g><rect x="1215" y="2170" fill="#eaeaea" stroke="#666" width="150" height="65" name="Customer" rx="3" ry="3" class="actor actor-bottom"></rect><text x="1290" y="2202.5" style="text-anchor: middle; font-size: 16px; font-weight: 400; font-family: monospace;" dominant-baseline="central" alignment-baseline="central" class="actor"><tspan x="1290" dy="0">Customer</tspan></text></g><g><rect x="882.5" y="2170" fill="#eaeaea" stroke="#666" width="165" height="65" name="Ledger" rx="3" ry="3" class="actor actor-bottom"></rect><text x="965" y="2202.5" style="text-anchor: middle; font-size: 16px; font-weight: 400; font-family: monospace;" dominant-baseline="central" alignment-baseline="central" class="actor"><tspan x="965" dy="0">Headless Ledger</tspan></text></g><g><rect x="676" y="2170" fill="#eaeaea" stroke="#666" width="150" height="65" name="ProdDNA" rx="3" ry="3" class="actor actor-bottom"></rect><text x="751" y="2202.5" style="text-anchor: middle; font-size: 16px; font-weight: 400; font-family: monospace;" dominant-baseline="central" alignment-baseline="central" class="actor"><tspan x="751" dy="0">Product DNA</tspan></text></g><g><rect x="423" y="2170" fill="#eaeaea" stroke="#666" width="203" height="65" name="AIGuard" rx="3" ry="3" class="actor actor-bottom"></rect><text x="524.5" y="2202.5" style="text-anchor: middle; font-size: 16px; font-weight: 400; font-family: monospace;" dominant-baseline="central" alignment-baseline="central" class="actor"><tspan x="524.5" dy="0">AI/Sharia Guardrail</tspan></text></g><g><rect x="0" y="2170" fill="#eaeaea" stroke="#666" width="193" height="65" name="CardOrch" rx="3" ry="3" class="actor actor-bottom"></rect><text x="96.5" y="2202.5" style="text-anchor: middle; font-size: 16px; font-weight: 400; font-family: monospace;" dominant-baseline="central" alignment-baseline="central" class="actor"><tspan x="96.5" dy="0">Cards Orchestrator</tspan></text></g><g><line id="actor14" x1="1290" y1="5" x2="1290" y2="2170" class="200" stroke-width="0.5px" stroke="#999"></line><g id="root-14"><rect x="1215" y="0" fill="#eaeaea" stroke="#666" width="150" height="65" name="Customer" rx="3" ry="3" class="actor actor-top"></rect><text x="1290" y="32.5" style="text-anchor: middle; font-size: 16px; font-weight: 400; font-family: monospace;" dominant-baseline="central" alignment-baseline="central" class="actor"><tspan x="1290" dy="0">Customer</tspan></text></g></g><g><line id="actor13" x1="965" y1="5" x2="965" y2="2170" class="200" stroke-width="0.5px" stroke="#999"></line><g id="root-13"><rect x="882.5" y="0" fill="#eaeaea" stroke="#666" width="165" height="65" name="Ledger" rx="3" ry="3" class="actor actor-top"></rect><text x="965" y="32.5" style="text-anchor: middle; font-size: 16px; font-weight: 400; font-family: monospace;" dominant-baseline="central" alignment-baseline="central" class="actor"><tspan x="965" dy="0">Headless Ledger</tspan></text></g></g><g><line id="actor12" x1="751" y1="5" x2="751" y2="2170" class="200" stroke-width="0.5px" stroke="#999"></line><g id="root-12"><rect x="676" y="0" fill="#eaeaea" stroke="#666" width="150" height="65" name="ProdDNA" rx="3" ry="3" class="actor actor-top"></rect><text x="751" y="32.5" style="text-anchor: middle; font-size: 16px; font-weight: 400; font-family: monospace;" dominant-baseline="central" alignment-baseline="central" class="actor"><tspan x="751" dy="0">Product DNA</tspan></text></g></g><g><line id="actor11" x1="524.5" y1="5" x2="524.5" y2="2170" class="200" stroke-width="0.5px" stroke="#999"></line><g id="root-11"><rect x="423" y="0" fill="#eaeaea" stroke="#666" width="203" height="65" name="AIGuard" rx="3" ry="3" class="actor actor-top"></rect><text x="524.5" y="32.5" style="text-anchor: middle; font-size: 16px; font-weight: 400; font-family: monospace;" dominant-baseline="central" alignment-baseline="central" class="actor"><tspan x="524.5" dy="0">AI/Sharia Guardrail</tspan></text></g></g><g><line id="actor10" x1="96.5" y1="5" x2="96.5" y2="2170" class="200" stroke-width="0.5px" stroke="#999"></line><g id="root-10"><rect x="0" y="0" fill="#eaeaea" stroke="#666" width="193" height="65" name="CardOrch" rx="3" ry="3" class="actor actor-top"></rect><text x="96.5" y="32.5" style="text-anchor: middle; font-size: 16px; font-weight: 400; font-family: monospace;" dominant-baseline="central" alignment-baseline="central" class="actor"><tspan x="96.5" dy="0">Cards Orchestrator</tspan></text></g></g><style>#mermaid-1775217503877{font-family:monospace;font-size:16px;fill:#333;}#mermaid-1775217503877 .error-icon{fill:#552222;}#mermaid-1775217503877 .error-text{fill:#552222;stroke:#552222;}#mermaid-1775217503877 .edge-thickness-normal{stroke-width:2px;}#mermaid-1775217503877 .edge-thickness-thick{stroke-width:3.5px;}#mermaid-1775217503877 .edge-pattern-solid{stroke-dasharray:0;}#mermaid-1775217503877 .edge-pattern-dashed{stroke-dasharray:3;}#mermaid-1775217503877 .edge-pattern-dotted{stroke-dasharray:2;}#mermaid-1775217503877 .marker{fill:#333333;stroke:#333333;}#mermaid-1775217503877 .marker.cross{stroke:#333333;}#mermaid-1775217503877 svg{font-family:monospace;font-size:16px;}#mermaid-1775217503877 .actor{stroke:hsl(259.6261682243, 59.7765363128%, 87.9019607843%);fill:#ECECFF;}#mermaid-1775217503877 text.actor&gt;tspan{fill:black;stroke:none;}#mermaid-1775217503877 .actor-line{stroke:grey;}#mermaid-1775217503877 .messageLine0{stroke-width:1.5;stroke-dasharray:none;stroke:#333;}#mermaid-1775217503877 .messageLine1{stroke-width:1.5;stroke-dasharray:2,2;stroke:#333;}#mermaid-1775217503877 #arrowhead path{fill:#333;stroke:#333;}#mermaid-1775217503877 .sequenceNumber{fill:white;}#mermaid-1775217503877 #sequencenumber{fill:#333;}#mermaid-1775217503877 #crosshead path{fill:#333;stroke:#333;}#mermaid-1775217503877 .messageText{fill:#333;stroke:none;}#mermaid-1775217503877 .labelBox{stroke:hsl(259.6261682243, 59.7765363128%, 87.9019607843%);fill:#ECECFF;}#mermaid-1775217503877 .labelText,#mermaid-1775217503877 .labelText&gt;tspan{fill:black;stroke:none;}#mermaid-1775217503877 .loopText,#mermaid-1775217503877 .loopText&gt;tspan{fill:black;stroke:none;}#mermaid-1775217503877 .loopLine{stroke-width:2px;stroke-dasharray:2,2;stroke:hsl(259.6261682243, 59.7765363128%, 87.9019607843%);fill:hsl(259.6261682243, 59.7765363128%, 87.9019607843%);}#mermaid-1775217503877 .note{stroke:#aaaa33;fill:#fff5ad;}#mermaid-1775217503877 .noteText,#mermaid-1775217503877 .noteText&gt;tspan{fill:black;stroke:none;}#mermaid-1775217503877 .activation0{fill:#f4f4f4;stroke:#666;}#mermaid-1775217503877 .activation1{fill:#f4f4f4;stroke:#666;}#mermaid-1775217503877 .activation2{fill:#f4f4f4;stroke:#666;}#mermaid-1775217503877 .actorPopupMenu{position:absolute;}#mermaid-1775217503877 .actorPopupMenuPanel{position:absolute;fill:#ECECFF;box-shadow:0px 8px 16px 0px rgba(0,0,0,0.2);filter:drop-shadow(3px 5px 2px rgb(0 0 0 / 0.4));}#mermaid-1775217503877 .actor-man line{stroke:hsl(259.6261682243, 59.7765363128%, 87.9019607843%);fill:#ECECFF;}#mermaid-1775217503877 .actor-man circle,#mermaid-1775217503877 line{stroke:hsl(259.6261682243, 59.7765363128%, 87.9019607843%);fill:#ECECFF;stroke-width:2px;}#mermaid-1775217503877 :root{--mermaid-font-family:monospace;}</style><g></g><defs><symbol id="computer" width="24" height="24"><path transform="scale(.5)" d="M2 2v13h20v-13h-20zm18 11h-16v-9h16v9zm-10.228 6l.466-1h3.524l.467 1h-4.457zm14.228 3h-24l2-6h2.104l-1.33 4h18.45l-1.297-4h2.073l2 6zm-5-10h-14v-7h14v7z"></path></symbol></defs><defs><symbol id="database" fill-rule="evenodd" clip-rule="evenodd"><path transform="scale(.5)" d="M12.258.001l.256.004.255.005.253.008.251.01.249.012.247.015.246.016.242.019.241.02.239.023.236.024.233.027.231.028.229.031.225.032.223.034.22.036.217.038.214.04.211.041.208.043.205.045.201.046.198.048.194.05.191.051.187.053.183.054.18.056.175.057.172.059.168.06.163.061.16.063.155.064.15.066.074.033.073.033.071.034.07.034.069.035.068.035.067.035.066.035.064.036.064.036.062.036.06.036.06.037.058.037.058.037.055.038.055.038.053.038.052.038.051.039.05.039.048.039.047.039.045.04.044.04.043.04.041.04.04.041.039.041.037.041.036.041.034.041.033.042.032.042.03.042.029.042.027.042.026.043.024.043.023.043.021.043.02.043.018.044.017.043.015.044.013.044.012.044.011.045.009.044.007.045.006.045.004.045.002.045.001.045v17l-.001.045-.002.045-.004.045-.006.045-.007.045-.009.044-.011.045-.012.044-.013.044-.015.044-.017.043-.018.044-.02.043-.021.043-.023.043-.024.043-.026.043-.027.042-.029.042-.03.042-.032.042-.033.042-.034.041-.036.041-.037.041-.039.041-.04.041-.041.04-.043.04-.044.04-.045.04-.047.039-.048.039-.05.039-.051.039-.052.038-.053.038-.055.038-.055.038-.058.037-.058.037-.06.037-.06.036-.062.036-.064.036-.064.036-.066.035-.067.035-.068.035-.069.035-.07.034-.071.034-.073.033-.074.033-.15.066-.155.064-.16.063-.163.061-.168.06-.172.059-.175.057-.18.056-.183.054-.187.053-.191.051-.194.05-.198.048-.201.046-.205.045-.208.043-.211.041-.214.04-.217.038-.22.036-.223.034-.225.032-.229.031-.231.028-.233.027-.236.024-.239.023-.241.02-.242.019-.246.016-.247.015-.249.012-.251.01-.253.008-.255.005-.256.004-.258.001-.258-.001-.256-.004-.255-.005-.253-.008-.251-.01-.249-.012-.247-.015-.245-.016-.243-.019-.241-.02-.238-.023-.236-.024-.234-.027-.231-.028-.228-.031-.226-.032-.223-.034-.22-.036-.217-.038-.214-.04-.211-.041-.208-.043-.204-.045-.201-.046-.198-.048-.195-.05-.19-.051-.187-.053-.184-.054-.179-.056-.176-.057-.172-.059-.167-.06-.164-.061-.159-.063-.155-.064-.151-.066-.074-.033-.072-.033-.072-.034-.07-.034-.069-.035-.068-.035-.067-.035-.066-.035-.064-.036-.063-.036-.062-.036-.061-.036-.06-.037-.058-.037-.057-.037-.056-.038-.055-.038-.053-.038-.052-.038-.051-.039-.049-.039-.049-.039-.046-.039-.046-.04-.044-.04-.043-.04-.041-.04-.04-.041-.039-.041-.037-.041-.036-.041-.034-.041-.033-.042-.032-.042-.03-.042-.029-.042-.027-.042-.026-.043-.024-.043-.023-.043-.021-.043-.02-.043-.018-.044-.017-.043-.015-.044-.013-.044-.012-.044-.011-.045-.009-.044-.007-.045-.006-.045-.004-.045-.002-.045-.001-.045v-17l.001-.045.002-.045.004-.045.006-.045.007-.045.009-.044.011-.045.012-.044.013-.044.015-.044.017-.043.018-.044.02-.043.021-.043.023-.043.024-.043.026-.043.027-.042.029-.042.03-.042.032-.042.033-.042.034-.041.036-.041.037-.041.039-.041.04-.041.041-.04.043-.04.044-.04.046-.04.046-.039.049-.039.049-.039.051-.039.052-.038.053-.038.055-.038.056-.038.057-.037.058-.037.06-.037.061-.036.062-.036.063-.036.064-.036.066-.035.067-.035.068-.035.069-.035.07-.034.072-.034.072-.033.074-.033.151-.066.155-.064.159-.063.164-.061.167-.06.172-.059.176-.057.179-.056.184-.054.187-.053.19-.051.195-.05.198-.048.201-.046.204-.045.208-.043.211-.041.214-.04.217-.038.22-.036.223-.034.226-.032.228-.031.231-.028.234-.027.236-.024.238-.023.241-.02.243-.019.245-.016.247-.015.249-.012.251-.01.253-.008.255-.005.256-.004.258-.001.258.001zm-9.258 20.499v.01l.001.021.003.021.004.022.005.021.006.022.007.022.009.023.01.022.011.023.012.023.013.023.015.023.016.024.017.023.018.024.019.024.021.024.022.025.023.024.024.025.052.049.056.05.061.051.066.051.07.051.075.051.079.052.084.052.088.052.092.052.097.052.102.051.105.052.11.052.114.051.119.051.123.051.127.05.131.05.135.05.139.048.144.049.147.047.152.047.155.047.16.045.163.045.167.043.171.043.176.041.178.041.183.039.187.039.19.037.194.035.197.035.202.033.204.031.209.03.212.029.216.027.219.025.222.024.226.021.23.02.233.018.236.016.24.015.243.012.246.01.249.008.253.005.256.004.259.001.26-.001.257-.004.254-.005.25-.008.247-.011.244-.012.241-.014.237-.016.233-.018.231-.021.226-.021.224-.024.22-.026.216-.027.212-.028.21-.031.205-.031.202-.034.198-.034.194-.036.191-.037.187-.039.183-.04.179-.04.175-.042.172-.043.168-.044.163-.045.16-.046.155-.046.152-.047.148-.048.143-.049.139-.049.136-.05.131-.05.126-.05.123-.051.118-.052.114-.051.11-.052.106-.052.101-.052.096-.052.092-.052.088-.053.083-.051.079-.052.074-.052.07-.051.065-.051.06-.051.056-.05.051-.05.023-.024.023-.025.021-.024.02-.024.019-.024.018-.024.017-.024.015-.023.014-.024.013-.023.012-.023.01-.023.01-.022.008-.022.006-.022.006-.022.004-.022.004-.021.001-.021.001-.021v-4.127l-.077.055-.08.053-.083.054-.085.053-.087.052-.09.052-.093.051-.095.05-.097.05-.1.049-.102.049-.105.048-.106.047-.109.047-.111.046-.114.045-.115.045-.118.044-.12.043-.122.042-.124.042-.126.041-.128.04-.13.04-.132.038-.134.038-.135.037-.138.037-.139.035-.142.035-.143.034-.144.033-.147.032-.148.031-.15.03-.151.03-.153.029-.154.027-.156.027-.158.026-.159.025-.161.024-.162.023-.163.022-.165.021-.166.02-.167.019-.169.018-.169.017-.171.016-.173.015-.173.014-.175.013-.175.012-.177.011-.178.01-.179.008-.179.008-.181.006-.182.005-.182.004-.184.003-.184.002h-.37l-.184-.002-.184-.003-.182-.004-.182-.005-.181-.006-.179-.008-.179-.008-.178-.01-.176-.011-.176-.012-.175-.013-.173-.014-.172-.015-.171-.016-.17-.017-.169-.018-.167-.019-.166-.02-.165-.021-.163-.022-.162-.023-.161-.024-.159-.025-.157-.026-.156-.027-.155-.027-.153-.029-.151-.03-.15-.03-.148-.031-.146-.032-.145-.033-.143-.034-.141-.035-.14-.035-.137-.037-.136-.037-.134-.038-.132-.038-.13-.04-.128-.04-.126-.041-.124-.042-.122-.042-.12-.044-.117-.043-.116-.045-.113-.045-.112-.046-.109-.047-.106-.047-.105-.048-.102-.049-.1-.049-.097-.05-.095-.05-.093-.052-.09-.051-.087-.052-.085-.053-.083-.054-.08-.054-.077-.054v4.127zm0-5.654v.011l.001.021.003.021.004.021.005.022.006.022.007.022.009.022.01.022.011.023.012.023.013.023.015.024.016.023.017.024.018.024.019.024.021.024.022.024.023.025.024.024.052.05.056.05.061.05.066.051.07.051.075.052.079.051.084.052.088.052.092.052.097.052.102.052.105.052.11.051.114.051.119.052.123.05.127.051.131.05.135.049.139.049.144.048.147.048.152.047.155.046.16.045.163.045.167.044.171.042.176.042.178.04.183.04.187.038.19.037.194.036.197.034.202.033.204.032.209.03.212.028.216.027.219.025.222.024.226.022.23.02.233.018.236.016.24.014.243.012.246.01.249.008.253.006.256.003.259.001.26-.001.257-.003.254-.006.25-.008.247-.01.244-.012.241-.015.237-.016.233-.018.231-.02.226-.022.224-.024.22-.025.216-.027.212-.029.21-.03.205-.032.202-.033.198-.035.194-.036.191-.037.187-.039.183-.039.179-.041.175-.042.172-.043.168-.044.163-.045.16-.045.155-.047.152-.047.148-.048.143-.048.139-.05.136-.049.131-.05.126-.051.123-.051.118-.051.114-.052.11-.052.106-.052.101-.052.096-.052.092-.052.088-.052.083-.052.079-.052.074-.051.07-.052.065-.051.06-.05.056-.051.051-.049.023-.025.023-.024.021-.025.02-.024.019-.024.018-.024.017-.024.015-.023.014-.023.013-.024.012-.022.01-.023.01-.023.008-.022.006-.022.006-.022.004-.021.004-.022.001-.021.001-.021v-4.139l-.077.054-.08.054-.083.054-.085.052-.087.053-.09.051-.093.051-.095.051-.097.05-.1.049-.102.049-.105.048-.106.047-.109.047-.111.046-.114.045-.115.044-.118.044-.12.044-.122.042-.124.042-.126.041-.128.04-.13.039-.132.039-.134.038-.135.037-.138.036-.139.036-.142.035-.143.033-.144.033-.147.033-.148.031-.15.03-.151.03-.153.028-.154.028-.156.027-.158.026-.159.025-.161.024-.162.023-.163.022-.165.021-.166.02-.167.019-.169.018-.169.017-.171.016-.173.015-.173.014-.175.013-.175.012-.177.011-.178.009-.179.009-.179.007-.181.007-.182.005-.182.004-.184.003-.184.002h-.37l-.184-.002-.184-.003-.182-.004-.182-.005-.181-.007-.179-.007-.179-.009-.178-.009-.176-.011-.176-.012-.175-.013-.173-.014-.172-.015-.171-.016-.17-.017-.169-.018-.167-.019-.166-.02-.165-.021-.163-.022-.162-.023-.161-.024-.159-.025-.157-.026-.156-.027-.155-.028-.153-.028-.151-.03-.15-.03-.148-.031-.146-.033-.145-.033-.143-.033-.141-.035-.14-.036-.137-.036-.136-.037-.134-.038-.132-.039-.13-.039-.128-.04-.126-.041-.124-.042-.122-.043-.12-.043-.117-.044-.116-.044-.113-.046-.112-.046-.109-.046-.106-.047-.105-.048-.102-.049-.1-.049-.097-.05-.095-.051-.093-.051-.09-.051-.087-.053-.085-.052-.083-.054-.08-.054-.077-.054v4.139zm0-5.666v.011l.001.02.003.022.004.021.005.022.006.021.007.022.009.023.01.022.011.023.012.023.013.023.015.023.016.024.017.024.018.023.019.024.021.025.022.024.023.024.024.025.052.05.056.05.061.05.066.051.07.051.075.052.079.051.084.052.088.052.092.052.097.052.102.052.105.051.11.052.114.051.119.051.123.051.127.05.131.05.135.05.139.049.144.048.147.048.152.047.155.046.16.045.163.045.167.043.171.043.176.042.178.04.183.04.187.038.19.037.194.036.197.034.202.033.204.032.209.03.212.028.216.027.219.025.222.024.226.021.23.02.233.018.236.017.24.014.243.012.246.01.249.008.253.006.256.003.259.001.26-.001.257-.003.254-.006.25-.008.247-.01.244-.013.241-.014.237-.016.233-.018.231-.02.226-.022.224-.024.22-.025.216-.027.212-.029.21-.03.205-.032.202-.033.198-.035.194-.036.191-.037.187-.039.183-.039.179-.041.175-.042.172-.043.168-.044.163-.045.16-.045.155-.047.152-.047.148-.048.143-.049.139-.049.136-.049.131-.051.126-.05.123-.051.118-.052.114-.051.11-.052.106-.052.101-.052.096-.052.092-.052.088-.052.083-.052.079-.052.074-.052.07-.051.065-.051.06-.051.056-.05.051-.049.023-.025.023-.025.021-.024.02-.024.019-.024.018-.024.017-.024.015-.023.014-.024.013-.023.012-.023.01-.022.01-.023.008-.022.006-.022.006-.022.004-.022.004-.021.001-.021.001-.021v-4.153l-.077.054-.08.054-.083.053-.085.053-.087.053-.09.051-.093.051-.095.051-.097.05-.1.049-.102.048-.105.048-.106.048-.109.046-.111.046-.114.046-.115.044-.118.044-.12.043-.122.043-.124.042-.126.041-.128.04-.13.039-.132.039-.134.038-.135.037-.138.036-.139.036-.142.034-.143.034-.144.033-.147.032-.148.032-.15.03-.151.03-.153.028-.154.028-.156.027-.158.026-.159.024-.161.024-.162.023-.163.023-.165.021-.166.02-.167.019-.169.018-.169.017-.171.016-.173.015-.173.014-.175.013-.175.012-.177.01-.178.01-.179.009-.179.007-.181.006-.182.006-.182.004-.184.003-.184.001-.185.001-.185-.001-.184-.001-.184-.003-.182-.004-.182-.006-.181-.006-.179-.007-.179-.009-.178-.01-.176-.01-.176-.012-.175-.013-.173-.014-.172-.015-.171-.016-.17-.017-.169-.018-.167-.019-.166-.02-.165-.021-.163-.023-.162-.023-.161-.024-.159-.024-.157-.026-.156-.027-.155-.028-.153-.028-.151-.03-.15-.03-.148-.032-.146-.032-.145-.033-.143-.034-.141-.034-.14-.036-.137-.036-.136-.037-.134-.038-.132-.039-.13-.039-.128-.041-.126-.041-.124-.041-.122-.043-.12-.043-.117-.044-.116-.044-.113-.046-.112-.046-.109-.046-.106-.048-.105-.048-.102-.048-.1-.05-.097-.049-.095-.051-.093-.051-.09-.052-.087-.052-.085-.053-.083-.053-.08-.054-.077-.054v4.153zm8.74-8.179l-.257.004-.254.005-.25.008-.247.011-.244.012-.241.014-.237.016-.233.018-.231.021-.226.022-.224.023-.22.026-.216.027-.212.028-.21.031-.205.032-.202.033-.198.034-.194.036-.191.038-.187.038-.183.04-.179.041-.175.042-.172.043-.168.043-.163.045-.16.046-.155.046-.152.048-.148.048-.143.048-.139.049-.136.05-.131.05-.126.051-.123.051-.118.051-.114.052-.11.052-.106.052-.101.052-.096.052-.092.052-.088.052-.083.052-.079.052-.074.051-.07.052-.065.051-.06.05-.056.05-.051.05-.023.025-.023.024-.021.024-.02.025-.019.024-.018.024-.017.023-.015.024-.014.023-.013.023-.012.023-.01.023-.01.022-.008.022-.006.023-.006.021-.004.022-.004.021-.001.021-.001.021.001.021.001.021.004.021.004.022.006.021.006.023.008.022.01.022.01.023.012.023.013.023.014.023.015.024.017.023.018.024.019.024.02.025.021.024.023.024.023.025.051.05.056.05.06.05.065.051.07.052.074.051.079.052.083.052.088.052.092.052.096.052.101.052.106.052.11.052.114.052.118.051.123.051.126.051.131.05.136.05.139.049.143.048.148.048.152.048.155.046.16.046.163.045.168.043.172.043.175.042.179.041.183.04.187.038.191.038.194.036.198.034.202.033.205.032.21.031.212.028.216.027.22.026.224.023.226.022.231.021.233.018.237.016.241.014.244.012.247.011.25.008.254.005.257.004.26.001.26-.001.257-.004.254-.005.25-.008.247-.011.244-.012.241-.014.237-.016.233-.018.231-.021.226-.022.224-.023.22-.026.216-.027.212-.028.21-.031.205-.032.202-.033.198-.034.194-.036.191-.038.187-.038.183-.04.179-.041.175-.042.172-.043.168-.043.163-.045.16-.046.155-.046.152-.048.148-.048.143-.048.139-.049.136-.05.131-.05.126-.051.123-.051.118-.051.114-.052.11-.052.106-.052.101-.052.096-.052.092-.052.088-.052.083-.052.079-.052.074-.051.07-.052.065-.051.06-.05.056-.05.051-.05.023-.025.023-.024.021-.024.02-.025.019-.024.018-.024.017-.023.015-.024.014-.023.013-.023.012-.023.01-.023.01-.022.008-.022.006-.023.006-.021.004-.022.004-.021.001-.021.001-.021-.001-.021-.001-.021-.004-.021-.004-.022-.006-.021-.006-.023-.008-.022-.01-.022-.01-.023-.012-.023-.013-.023-.014-.023-.015-.024-.017-.023-.018-.024-.019-.024-.02-.025-.021-.024-.023-.024-.023-.025-.051-.05-.056-.05-.06-.05-.065-.051-.07-.052-.074-.051-.079-.052-.083-.052-.088-.052-.092-.052-.096-.052-.101-.052-.106-.052-.11-.052-.114-.052-.118-.051-.123-.051-.126-.051-.131-.05-.136-.05-.139-.049-.143-.048-.148-.048-.152-.048-.155-.046-.16-.046-.163-.045-.168-.043-.172-.043-.175-.042-.179-.041-.183-.04-.187-.038-.191-.038-.194-.036-.198-.034-.202-.033-.205-.032-.21-.031-.212-.028-.216-.027-.22-.026-.224-.023-.226-.022-.231-.021-.233-.018-.237-.016-.241-.014-.244-.012-.247-.011-.25-.008-.254-.005-.257-.004-.26-.001-.26.001z"></path></symbol></defs><defs><symbol id="clock" width="24" height="24"><path transform="scale(.5)" d="M12 2c5.514 0 10 4.486 10 10s-4.486 10-10 10-10-4.486-10-10 4.486-10 10-10zm0-2c-6.627 0-12 5.373-12 12s5.373 12 12 12 12-5.373 12-12-5.373-12-12-12zm5.848 12.459c.202.038.202.333.001.372-1.907.361-6.045 1.111-6.547 1.111-.719 0-1.301-.582-1.301-1.301 0-.512.77-5.447 1.125-7.445.034-.192.312-.181.343.014l.985 6.238 5.394 1.011z"></path></symbol></defs><defs><marker id="arrowhead" refX="7.9" refY="5" markerUnits="userSpaceOnUse" markerWidth="12" markerHeight="12" orient="auto"><path d="M 0 0 L 10 5 L 0 10 z"></path></marker></defs><defs><marker id="crosshead" markerWidth="15" markerHeight="8" orient="auto" refX="4" refY="4.5"><path fill="none" stroke="#000000" style="stroke-dasharray: 0, 0;" stroke-width="1pt" d="M 1,2 L 6,7 M 6,2 L 1,7"></path></marker></defs><defs><marker id="filled-head" refX="15.5" refY="7" markerWidth="20" markerHeight="28" orient="auto"><path d="M 18,7 L9,13 L14,7 L9,1 Z"></path></marker></defs><defs><marker id="sequencenumber" refX="15" refY="15" markerWidth="60" markerHeight="40" orient="auto"><circle cx="15" cy="15" r="6"></circle></marker></defs><g><rect x="71.5" y="75" fill="#EDF2AE" stroke="#666" width="1243.5" height="39" rx="0" ry="0" class="note"></rect><text x="693" y="80" text-anchor="middle" dominant-baseline="middle" alignment-baseline="middle" style="font-family: monospace; font-size: 16px; font-weight: 400;" class="noteText" dy="1em"><tspan x="693">Failure Scenario: AI Guardrail Timeout (Fail-Safe Mode)</tspan></text></g><g><rect x="71.5" y="144" fill="#EDF2AE" stroke="#666" width="478" height="39" rx="0" ry="0" class="note"></rect><text x="311" y="149" text-anchor="middle" dominant-baseline="middle" alignment-baseline="middle" style="font-family: monospace; font-size: 16px; font-weight: 400;" class="noteText" dy="1em"><tspan x="311">Attempt 1: Normal AI Call</tspan></text></g><g><rect x="91.5" y="183" fill="#EDF2AE" stroke="#666" width="10" height="1564" rx="0" ry="0" class="activation0"></rect></g><g><rect x="519.5" y="252" fill="#EDF2AE" stroke="#666" width="10" height="199" rx="0" ry="0" class="activation0"></rect></g><g><rect x="389.5" y="260" fill="#EDF2AE" stroke="#666" width="270" height="76" rx="0" ry="0" class="note"></rect><text x="525" y="265" text-anchor="middle" dominant-baseline="middle" alignment-baseline="middle" style="font-family: monospace; font-size: 16px; font-weight: 400;" class="noteText" dy="1em"><tspan x="525">ML Model Processing...</tspan></text><text x="525" y="284" text-anchor="middle" dominant-baseline="middle" alignment-baseline="middle" style="font-family: monospace; font-size: 16px; font-weight: 400;" class="noteText" dy="1em"><tspan x="525">Fraud Detection Running...</tspan></text><text x="525" y="302" text-anchor="middle" dominant-baseline="middle" alignment-baseline="middle" style="font-family: monospace; font-size: 16px; font-weight: 400;" class="noteText" dy="1em"><tspan x="525">⏱️ Time passing...</tspan></text></g><g><rect x="398" y="346" fill="#EDF2AE" stroke="#666" width="253" height="57" rx="0" ry="0" class="note"></rect><text x="525" y="351" text-anchor="middle" dominant-baseline="middle" alignment-baseline="middle" style="font-family: monospace; font-size: 16px; font-weight: 400;" class="noteText" dy="1em"><tspan x="525">⚠️ Inference takes 560ms</tspan></text><text x="525" y="370" text-anchor="middle" dominant-baseline="middle" alignment-baseline="middle" style="font-family: monospace; font-size: 16px; font-weight: 400;" class="noteText" dy="1em"><tspan x="525">(GPU overloaded)</tspan></text></g><g><rect x="121.5" y="461" fill="#EDF2AE" stroke="#666" width="193" height="57" rx="0" ry="0" class="note"></rect><text x="218" y="466" text-anchor="middle" dominant-baseline="middle" alignment-baseline="middle" style="font-family: monospace; font-size: 16px; font-weight: 400;" class="noteText" dy="1em"><tspan x="218">Time: 100ms</tspan></text><text x="218" y="485" text-anchor="middle" dominant-baseline="middle" alignment-baseline="middle" style="font-family: monospace; font-size: 16px; font-weight: 400;" class="noteText" dy="1em"><tspan x="218">Status: TIMEOUT</tspan></text></g><g><rect x="71.5" y="558" fill="#EDF2AE" stroke="#666" width="478" height="39" rx="0" ry="0" class="note"></rect><text x="311" y="563" text-anchor="middle" dominant-baseline="middle" alignment-baseline="middle" style="font-family: monospace; font-size: 16px; font-weight: 400;" class="noteText" dy="1em"><tspan x="311">Attempt 2: Retry with Extended Timeout</tspan></text></g><g><rect x="519.5" y="666" fill="#EDF2AE" stroke="#666" width="10" height="113" rx="0" ry="0" class="activation0"></rect></g><g><rect x="407.5" y="674" fill="#EDF2AE" stroke="#666" width="234" height="57" rx="0" ry="0" class="note"></rect><text x="525" y="679" text-anchor="middle" dominant-baseline="middle" alignment-baseline="middle" style="font-family: monospace; font-size: 16px; font-weight: 400;" class="noteText" dy="1em"><tspan x="525">ML Model still slow...</tspan></text><text x="525" y="698" text-anchor="middle" dominant-baseline="middle" alignment-baseline="middle" style="font-family: monospace; font-size: 16px; font-weight: 400;" class="noteText" dy="1em"><tspan x="525">⏱️ Still processing...</tspan></text></g><g><rect x="121.5" y="789" fill="#EDF2AE" stroke="#666" width="213" height="57" rx="0" ry="0" class="note"></rect><text x="228" y="794" text-anchor="middle" dominant-baseline="middle" alignment-baseline="middle" style="font-family: monospace; font-size: 16px; font-weight: 400;" class="noteText" dy="1em"><tspan x="228">Time: 300ms total</tspan></text><text x="228" y="813" text-anchor="middle" dominant-baseline="middle" alignment-baseline="middle" style="font-family: monospace; font-size: 16px; font-weight: 400;" class="noteText" dy="1em"><tspan x="228">Status: RETRY_FAILED</tspan></text></g><g><rect x="71.5" y="886" fill="#EDF2AE" stroke="#666" width="918.5" height="39" rx="0" ry="0" class="note"></rect><text x="531" y="891" text-anchor="middle" dominant-baseline="middle" alignment-baseline="middle" style="font-family: monospace; font-size: 16px; font-weight: 400;" class="noteText" dy="1em"><tspan x="531">Fail-Safe Decision Mode</tspan></text></g><g><rect x="746" y="1072" fill="#EDF2AE" stroke="#666" width="10" height="46" rx="0" ry="0" class="activation0"></rect></g><g><rect x="-48.5" y="1128" fill="#EDF2AE" stroke="#666" width="290" height="113" rx="0" ry="0" class="note"></rect><text x="97" y="1133" text-anchor="middle" dominant-baseline="middle" alignment-baseline="middle" style="font-family: monospace; font-size: 16px; font-weight: 400;" class="noteText" dy="1em"><tspan x="97">Fail-Safe Logic:</tspan></text><text x="97" y="1152" text-anchor="middle" dominant-baseline="middle" alignment-baseline="middle" style="font-family: monospace; font-size: 16px; font-weight: 400;" class="noteText" dy="1em"><tspan x="97">Amount: $50 (5000 cents)</tspan></text><text x="97" y="1170" text-anchor="middle" dominant-baseline="middle" alignment-baseline="middle" style="font-family: monospace; font-size: 16px; font-weight: 400;" class="noteText" dy="1em"><tspan x="97">Channel: POS</tspan></text><text x="97" y="1189" text-anchor="middle" dominant-baseline="middle" alignment-baseline="middle" style="font-family: monospace; font-size: 16px; font-weight: 400;" class="noteText" dy="1em"><tspan x="97">Location: Home Country (UAE)</tspan></text><text x="97" y="1208" text-anchor="middle" dominant-baseline="middle" alignment-baseline="middle" style="font-family: monospace; font-size: 16px; font-weight: 400;" class="noteText" dy="1em"><tspan x="97">Customer Tier: Standard</tspan></text></g><g><rect x="-38.5" y="1296" fill="#EDF2AE" stroke="#666" width="270" height="39" rx="0" ry="0" class="note"></rect><text x="97" y="1301" text-anchor="middle" dominant-baseline="middle" alignment-baseline="middle" style="font-family: monospace; font-size: 16px; font-weight: 400;" class="noteText" dy="1em"><tspan x="97">✓ Meets Fail-Safe Criteria</tspan></text></g><g><rect x="960" y="1385" fill="#EDF2AE" stroke="#666" width="10" height="95" rx="0" ry="0" class="activation0"></rect></g><g><rect x="801" y="1393" fill="#EDF2AE" stroke="#666" width="328" height="39" rx="0" ry="0" class="note"></rect><text x="965" y="1398" text-anchor="middle" dominant-baseline="middle" alignment-baseline="middle" style="font-family: monospace; font-size: 16px; font-weight: 400;" class="noteText" dy="1em"><tspan x="965">Flag: approved_via_failsafe=true</tspan></text></g><g><rect x="-38.5" y="1583" fill="#EDF2AE" stroke="#666" width="270" height="39" rx="0" ry="0" class="note"></rect><text x="97" y="1588" text-anchor="middle" dominant-baseline="middle" alignment-baseline="middle" style="font-family: monospace; font-size: 16px; font-weight: 400;" class="noteText" dy="1em"><tspan x="97">✗ Fails Fail-Safe Criteria</tspan></text></g><g><rect x="1315" y="1680" fill="#EDF2AE" stroke="#666" width="193" height="57" rx="0" ry="0" class="note"></rect><text x="1412" y="1685" text-anchor="middle" dominant-baseline="middle" alignment-baseline="middle" style="font-family: monospace; font-size: 16px; font-weight: 400;" class="noteText" dy="1em"><tspan x="1412">Customer can retry</tspan></text><text x="1412" y="1704" text-anchor="middle" dominant-baseline="middle" alignment-baseline="middle" style="font-family: monospace; font-size: 16px; font-weight: 400;" class="noteText" dy="1em"><tspan x="1412">or contact support</tspan></text></g><g><line x1="-48.5" y1="1251" x2="1518" y2="1251" class="loopLine"></line><line x1="1518" y1="1251" x2="1518" y2="1747" class="loopLine"></line><line x1="-48.5" y1="1747" x2="1518" y2="1747" class="loopLine"></line><line x1="-48.5" y1="1251" x2="-48.5" y2="1747" class="loopLine"></line><line x1="-48.5" y1="1543" x2="1518" y2="1543" class="loopLine" style="stroke-dasharray: 3, 3;"></line><polygon points="-48.5,1251 1.5,1251 1.5,1264 -6.9,1271 -48.5,1271" class="labelBox"></polygon><text x="-23" y="1264" text-anchor="middle" dominant-baseline="middle" alignment-baseline="middle" style="font-family: monospace; font-size: 16px; font-weight: 400;" class="labelText">alt</text><text x="759.75" y="1269" text-anchor="middle" style="font-family: monospace; font-size: 16px; font-weight: 400;" class="loopText"><tspan x="759.75">[Low-Risk Transaction (Amount &lt; $100 + POS + Home Country)]</tspan></text><text x="734.75" y="1561" text-anchor="middle" style="font-family: monospace; font-size: 16px; font-weight: 400;" class="loopText">[High-Risk Transaction (Amount &gt; $100 OR Online OR Foreign)]</text></g><g><rect x="71.5" y="1787" fill="#EDF2AE" stroke="#666" width="478" height="39" rx="0" ry="0" class="note"></rect><text x="311" y="1792" text-anchor="middle" dominant-baseline="middle" alignment-baseline="middle" style="font-family: monospace; font-size: 16px; font-weight: 400;" class="noteText" dy="1em"><tspan x="311">Post-Incident Actions</tspan></text></g><g><rect x="-10" y="1836" fill="#EDF2AE" stroke="#666" width="213" height="113" rx="0" ry="0" class="note"></rect><text x="97" y="1841" text-anchor="middle" dominant-baseline="middle" alignment-baseline="middle" style="font-family: monospace; font-size: 16px; font-weight: 400;" class="noteText" dy="1em"><tspan x="97">Log for Review:</tspan></text><text x="97" y="1860" text-anchor="middle" dominant-baseline="middle" alignment-baseline="middle" style="font-family: monospace; font-size: 16px; font-weight: 400;" class="noteText" dy="1em"><tspan x="97">- Transaction ID</tspan></text><text x="97" y="1878" text-anchor="middle" dominant-baseline="middle" alignment-baseline="middle" style="font-family: monospace; font-size: 16px; font-weight: 400;" class="noteText" dy="1em"><tspan x="97">- Fail-Safe Decision</tspan></text><text x="97" y="1897" text-anchor="middle" dominant-baseline="middle" alignment-baseline="middle" style="font-family: monospace; font-size: 16px; font-weight: 400;" class="noteText" dy="1em"><tspan x="97">- Timestamp</tspan></text><text x="97" y="1916" text-anchor="middle" dominant-baseline="middle" alignment-baseline="middle" style="font-family: monospace; font-size: 16px; font-weight: 400;" class="noteText" dy="1em"><tspan x="97">- Customer ID</tspan></text></g><g><rect x="418" y="1959" fill="#EDF2AE" stroke="#666" width="213" height="76" rx="0" ry="0" class="note"></rect><text x="525" y="1964" text-anchor="middle" dominant-baseline="middle" alignment-baseline="middle" style="font-family: monospace; font-size: 16px; font-weight: 400;" class="noteText" dy="1em"><tspan x="525">Auto-Scale Trigger:</tspan></text><text x="525" y="1983" text-anchor="middle" dominant-baseline="middle" alignment-baseline="middle" style="font-family: monospace; font-size: 16px; font-weight: 400;" class="noteText" dy="1em"><tspan x="525">Add 2 more GPU nodes</tspan></text><text x="525" y="2001" text-anchor="middle" dominant-baseline="middle" alignment-baseline="middle" style="font-family: monospace; font-size: 16px; font-weight: 400;" class="noteText" dy="1em"><tspan x="525">if timeout rate &gt; 5%</tspan></text></g><g><rect x="-63" y="2045" fill="#EDF2AE" stroke="#666" width="319" height="95" rx="0" ry="0" class="note"></rect><text x="97" y="2050" text-anchor="middle" dominant-baseline="middle" alignment-baseline="middle" style="font-family: monospace; font-size: 16px; font-weight: 400;" class="noteText" dy="1em"><tspan x="97">Nightly Batch Review:</tspan></text><text x="97" y="2069" text-anchor="middle" dominant-baseline="middle" alignment-baseline="middle" style="font-family: monospace; font-size: 16px; font-weight: 400;" class="noteText" dy="1em"><tspan x="97">Re-score fail-safe transactions</tspan></text><text x="97" y="2087" text-anchor="middle" dominant-baseline="middle" alignment-baseline="middle" style="font-family: monospace; font-size: 16px; font-weight: 400;" class="noteText" dy="1em"><tspan x="97">with full ML model</tspan></text><text x="97" y="2106" text-anchor="middle" dominant-baseline="middle" alignment-baseline="middle" style="font-family: monospace; font-size: 16px; font-weight: 400;" class="noteText" dy="1em"><tspan x="97">Flag any fraud misses</tspan></text></g><text x="311" y="198" text-anchor="middle" dominant-baseline="middle" alignment-baseline="middle" style="font-family: monospace; font-size: 16px; font-weight: 400;" class="messageText" dy="1em">POST /guardrail/evaluate</text><text x="311" y="217" text-anchor="middle" dominant-baseline="middle" alignment-baseline="middle" style="font-family: monospace; font-size: 16px; font-weight: 400;" class="messageText" dy="1em">Timeout: 100ms</text><line x1="101.5" y1="250" x2="520.5" y2="250" class="messageLine0" stroke-width="2" stroke="none" style="fill: none;" marker-end="url(#arrowhead)" marker-start="url(#sequencenumber)"></line><text x="101.5" y="254" font-family="sans-serif" font-size="12px" text-anchor="middle" class="sequenceNumber">1</text><text x="312" y="418" text-anchor="middle" dominant-baseline="middle" alignment-baseline="middle" style="font-family: monospace; font-size: 16px; font-weight: 400;" class="messageText" dy="1em">❌ Timeout Exception (100ms exceeded)</text><line x1="519.5" y1="451" x2="104.5" y2="451" style="stroke-dasharray: 3, 3; fill: none;" class="messageLine1" stroke-width="2" stroke="none" marker-end="url(#arrowhead)" marker-start="url(#sequencenumber)"></line><text x="519.5" y="455" font-family="sans-serif" font-size="12px" text-anchor="middle" class="sequenceNumber">2</text><text x="311" y="612" text-anchor="middle" dominant-baseline="middle" alignment-baseline="middle" style="font-family: monospace; font-size: 16px; font-weight: 400;" class="messageText" dy="1em">POST /guardrail/evaluate</text><text x="311" y="631" text-anchor="middle" dominant-baseline="middle" alignment-baseline="middle" style="font-family: monospace; font-size: 16px; font-weight: 400;" class="messageText" dy="1em">Timeout: 200ms (RETRY)</text><line x1="101.5" y1="664" x2="520.5" y2="664" class="messageLine0" stroke-width="2" stroke="none" style="fill: none;" marker-end="url(#arrowhead)" marker-start="url(#sequencenumber)"></line><text x="101.5" y="668" font-family="sans-serif" font-size="12px" text-anchor="middle" class="sequenceNumber">3</text><text x="312" y="746" text-anchor="middle" dominant-baseline="middle" alignment-baseline="middle" style="font-family: monospace; font-size: 16px; font-weight: 400;" class="messageText" dy="1em">❌ Timeout Exception (200ms exceeded)</text><line x1="519.5" y1="779" x2="104.5" y2="779" style="stroke-dasharray: 3, 3; fill: none;" class="messageLine1" stroke-width="2" stroke="none" marker-end="url(#arrowhead)" marker-start="url(#sequencenumber)"></line><text x="519.5" y="783" font-family="sans-serif" font-size="12px" text-anchor="middle" class="sequenceNumber">4</text><text x="102" y="940" text-anchor="middle" dominant-baseline="middle" alignment-baseline="middle" style="font-family: monospace; font-size: 16px; font-weight: 400;" class="messageText" dy="1em">Enter Fail-Safe Mode</text><text x="102" y="959" text-anchor="middle" dominant-baseline="middle" alignment-baseline="middle" style="font-family: monospace; font-size: 16px; font-weight: 400;" class="messageText" dy="1em">(No ML available)</text><path d="M 101.5,992 C 161.5,982 161.5,1022 101.5,1012" class="messageLine0" stroke-width="2" stroke="none" style="fill: none;" marker-end="url(#arrowhead)" marker-start="url(#sequencenumber)"></path><text x="101.5" y="996" font-family="sans-serif" font-size="12px" text-anchor="middle" class="sequenceNumber">5</text><text x="424" y="1037" text-anchor="middle" dominant-baseline="middle" alignment-baseline="middle" style="font-family: monospace; font-size: 16px; font-weight: 400;" class="messageText" dy="1em">GET /products/checking/basic-rules</text><line x1="101.5" y1="1070" x2="747" y2="1070" class="messageLine0" stroke-width="2" stroke="none" style="fill: none;" marker-end="url(#arrowhead)" marker-start="url(#sequencenumber)"></line><text x="101.5" y="1074" font-family="sans-serif" font-size="12px" text-anchor="middle" class="sequenceNumber">6</text><text x="425" y="1085" text-anchor="middle" dominant-baseline="middle" alignment-baseline="middle" style="font-family: monospace; font-size: 16px; font-weight: 400;" class="messageText" dy="1em">{max_failsafe_amount: 10000}</text><line x1="746" y1="1118" x2="104.5" y2="1118" style="stroke-dasharray: 3, 3; fill: none;" class="messageLine1" stroke-width="2" stroke="none" marker-end="url(#arrowhead)" marker-start="url(#sequencenumber)"></line><text x="746" y="1122" font-family="sans-serif" font-size="12px" text-anchor="middle" class="sequenceNumber">7</text><text x="531" y="1350" text-anchor="middle" dominant-baseline="middle" alignment-baseline="middle" style="font-family: monospace; font-size: 16px; font-weight: 400;" class="messageText" dy="1em">Post Authorization (FAIL_SAFE_APPROVED)</text><line x1="101.5" y1="1383" x2="961" y2="1383" class="messageLine0" stroke-width="2" stroke="none" style="fill: none;" marker-end="url(#arrowhead)" marker-start="url(#sequencenumber)"></line><text x="101.5" y="1387" font-family="sans-serif" font-size="12px" text-anchor="middle" class="sequenceNumber">8</text><text x="532" y="1447" text-anchor="middle" dominant-baseline="middle" alignment-baseline="middle" style="font-family: monospace; font-size: 16px; font-weight: 400;" class="messageText" dy="1em">Success</text><line x1="960" y1="1480" x2="104.5" y2="1480" style="stroke-dasharray: 3, 3; fill: none;" class="messageLine1" stroke-width="2" stroke="none" marker-end="url(#arrowhead)" marker-start="url(#sequencenumber)"></line><text x="960" y="1484" font-family="sans-serif" font-size="12px" text-anchor="middle" class="sequenceNumber">9</text><text x="694" y="1495" text-anchor="middle" dominant-baseline="middle" alignment-baseline="middle" style="font-family: monospace; font-size: 16px; font-weight: 400;" class="messageText" dy="1em">APPROVED (via Fail-Safe)</text><line x1="101.5" y1="1528" x2="1286" y2="1528" style="stroke-dasharray: 3, 3; fill: none;" class="messageLine1" stroke-width="2" stroke="none" marker-end="url(#arrowhead)" marker-start="url(#sequencenumber)"></line><text x="101.5" y="1532" font-family="sans-serif" font-size="12px" text-anchor="middle" class="sequenceNumber">10</text><text x="694" y="1637" text-anchor="middle" dominant-baseline="middle" alignment-baseline="middle" style="font-family: monospace; font-size: 16px; font-weight: 400;" class="messageText" dy="1em">DECLINED (Fail-Safe Rejection)</text><line x1="101.5" y1="1670" x2="1286" y2="1670" style="stroke-dasharray: 3, 3; fill: none;" class="messageLine1" stroke-width="2" stroke="none" marker-end="url(#arrowhead)" marker-start="url(#sequencenumber)"></line><text x="101.5" y="1674" font-family="sans-serif" font-size="12px" text-anchor="middle" class="sequenceNumber">11</text></svg>